#!OML:ASF F:\Work\Patient Classification 1\justin\Session 1\justin.ASF
:FULLY-SPECIFIED
:DEGREES
9039
root -0.437937 17.3731 0.775879 -1.46176 4.59286 -3.85004
lowerback 12.2167 3.76073 3.73486
upperback 0.291576 5.6126 1.37215
thorax -6.31268 2.65594 -1.61698
lowerneck -20.546 -8.73785 -18.2408
upperneck 11.3332 -9.33686 15.3458
head 8.52253 -3.87025 6.92545
rclavicle 4.20927e-014 -8.54774e-015
rhumerus -37.3244 19.3439 -95.3174
rradius 112.607
rwrist 3.20901
rhand -15.0533 29.2642
rfingers 7.12502
rthumb 11.1134 -0.421565
lclavicle 4.20927e-014 -8.54774e-015
lhumerus -43.1545 -9.48711 96.6784
lradius 115.572
lwrist 4.94672
lhand -25.1435 19.3131
lfingers 7.12502
lthumb 1.37298 49.2884
rfemur -7.36261 -3.44865 28.4829
rtibia 39.763
rfoot -26.0241 -11.8514
rtoes -11.0223
lfemur -16.6981 -1.76235 -8.55021
ltibia 53.6808
lfoot -16.5205 -14.7592
ltoes -23.7493
9040
root -0.425072 17.3765 0.738946 -1.21133 5.08506 -3.71365
lowerback 12.0663 3.58641 3.48305
upperback 0.171432 5.34689 1.4099
thorax -6.39526 2.53134 -1.38903
lowerneck -21.1497 -8.78258 -18.0838
upperneck 11.8176 -9.35562 15.1957
head 8.77346 -3.86195 6.84446
rclavicle 8.08432e-014 3.37934e-015
rhumerus -37.3506 19.5819 -95.3556
rradius 112.323
rwrist 3.49487
rhand -15.4162 28.8399
rfingers 7.12502
rthumb 10.7634 -0.864295
lclavicle 8.08432e-014 3.37934e-015
lhumerus -43.6638 -9.54007 96.8578
lradius 115.457
lwrist 4.52472
lhand -25.5695 19.3932
lfingers 7.12502
lthumb 0.961507 49.3707
rfemur -7.85266 -3.72944 28.3134
rtibia 39.984
rfoot -26.0849 -11.942
rtoes -10.8477
lfemur -16.2264 -2.2519 -8.77223
ltibia 52.1725
lfoot -17.2549 -16.3343
ltoes -21.2313
9041
root -0.416755 17.3822 0.687915 -0.767822 6.07737 -3.57225
lowerback 11.977 3.22463 3.27862
upperback -0.159535 4.84615 1.3895
thorax -6.73347 2.28183 -1.22117
lowerneck -21.3953 -8.77908 -18.1436
upperneck 12.1697 -9.36861 15.4151
head 8.95459 -3.84209 6.93947
rclavicle -8.32411e-016 -2.46493e-014
rhumerus -37.5656 19.7357 -95.4855
rradius 112.125
rwrist 3.52827
rhand -15.4618 28.5594
rfingers 7.12502
rthumb 10.7193 -1.14717
lclavicle -8.32411e-016 -2.46493e-014
lhumerus -44.179 -9.60122 96.9476
lradius 115.246
lwrist 4.20305
lhand -25.8734 19.6715
lfingers 7.12502
lthumb 0.667987 49.6502
rfemur -8.6007 -4.3616 28.1743
rtibia 40.1344
rfoot -26.0989 -12.1414
rtoes -10.4755
lfemur -16.2727 -2.9901 -8.98668
ltibia 50.6192
lfoot -18.3056 -16.2752
ltoes -18.7399
9042
root -0.405476 17.391 0.651525 -0.510647 6.7846 -3.52201
lowerback 11.9011 2.95428 3.08058
upperback -0.383214 4.47027 1.46428
thorax -6.96484 2.09981 -0.972376
lowerneck -21.3475 -8.72229 -18.3153
upperneck 12.1111 -9.30171 15.7242
head 8.94359 -3.79256 7.09451
rclavicle -1.09543e-013 -2.16675e-014
rhumerus -37.7344 19.8036 -95.4849
rradius 111.919
rwrist 3.4393
rhand -15.1151 28.7021
rfingers 7.12502
rthumb 11.0537 -0.986827
lclavicle -1.09543e-013 -2.16675e-014
lhumerus -44.7003 -9.64077 97.1399
lradius 115.038
lwrist 3.86298
lhand -26.0185 19.4845
lfingers 7.12502
lthumb 0.527863 49.4636
rfemur -9.03703 -4.7295 28.1242
rtibia 40.1543
rfoot -26.0489 -12.3854
rtoes -10.2794
lfemur -15.9785 -3.45325 -9.11094
ltibia 49.032
lfoot -19.2819 -14.9729
ltoes -19.0546
9043
root -0.386152 17.4076 0.634007 -0.47796 7.18172 -3.409
lowerback 11.6967 2.80619 2.79869
upperback -0.333033 4.23336 1.59295
thorax -6.8338 2.00026 -0.626876
lowerneck -21.5534 -8.73183 -18.5408
upperneck 12.1138 -9.26568 16.0155
head 9.00347 -3.75106 7.2461
rclavicle -5.91136e-014 -2.48481e-014
rhumerus -37.751 19.9051 -95.3641
rradius 111.67
rwrist 3.78918
rhand -15.3412 28.7279
rfingers 7.12502
rthumb 10.8356 -0.972586
lclavicle -5.91136e-014 -2.48481e-014
lhumerus -44.8638 -9.68069 97.4884
lradius 114.748
lwrist 3.53408
lhand -26.2862 19.4545
lfingers 7.12502
lthumb 0.26935 49.4341
rfemur -9.01052 -4.95605 27.9262
rtibia 39.9409
rfoot -25.8986 -12.5003
rtoes -10.3449
lfemur -15.2135 -3.60093 -9.37167
ltibia 47.3948
lfoot -19.9558 -14.0274
ltoes -18.6796
9044
root -0.366835 17.4283 0.617886 -0.446456 7.4784 -3.30622
lowerback 11.5356 2.67834 2.54567
upperback -0.329283 4.02841 1.67529
thorax -6.76735 1.91221 -0.356227
lowerneck -22.0528 -8.78327 -18.706
upperneck 12.5583 -9.29596 16.2843
head 9.27276 -3.72872 7.37906
rclavicle -5.45664e-014 -2.127e-014
rhumerus -38.0505 19.9804 -95.4701
rradius 111.54
rwrist 4.08664
rhand -15.9404 28.4529
rfingers 7.12502
rthumb 10.2577 -1.27697
lclavicle -5.45664e-014 -2.127e-014
lhumerus -45.1645 -9.80613 97.7697
lradius 114.525
lwrist 3.29394
lhand -26.7527 19.8803
lfingers 7.12502
lthumb -0.181272 49.86
rfemur -8.9563 -5.07029 27.7433
rtibia 39.6623
rfoot -25.6839 -12.6511
rtoes -10.5022
lfemur -14.5941 -3.52503 -9.6479
ltibia 46.1478
lfoot -20.37 -14.196
ltoes -17.3789
9045
root -0.297877 17.4578 0.688471 -0.93171 4.85749 -3.25753
lowerback 10.9382 3.47366 2.5238
upperback -0.0276251 5.04749 1.65316
thorax -6.08981 2.42639 -0.485656
lowerneck -22.1947 -8.77757 -18.4177
upperneck 12.7412 -9.34211 16.1308
head 9.34417 -3.74436 7.26831
rclavicle -3.9906e-014 -2.78299e-015
rhumerus -38.703 19.9084 -95.7884
rradius 111.573
rwrist 3.95697
rhand -15.8823 28.3719
rfingers 7.12502
rthumb 10.3137 -1.35523
lclavicle -3.9906e-014 -2.78299e-015
lhumerus -45.8078 -10.0563 97.9469
lradius 114.381
lwrist 3.12634
lhand -26.4642 19.1299
lfingers 7.12502
lthumb 0.0974167 49.1096
rfemur -7.84848 -3.49715 27.2548
rtibia 39.2387
rfoot -25.4508 -11.7839
rtoes -11.201
lfemur -12.334 -1.68652 -10.2135
ltibia 45.0755
lfoot -21.449 -13.3641
ltoes -16.0741
9046
root -0.359931 17.4731 0.540157 -0.0546579 7.28452 -4.69145
lowerback 11.6474 2.60691 3.21338
upperback -0.783963 4.09133 2.24315
thorax -7.31361 1.91708 -0.160006
lowerneck -22.3436 -8.82674 -18.2134
upperneck 12.5412 -9.38173 15.9216
head 9.28386 -3.76458 7.14035
rclavicle 1.04362e-015 -1.31198e-014
rhumerus -38.9926 19.8926 -95.7186
rradius 111.665
rwrist 4.00216
rhand -15.4845 28.1404
rfingers 7.12502
rthumb 10.6974 -1.56722
lclavicle 1.04362e-015 -1.31198e-014
lhumerus -46.0763 -10.3219 98.2799
lradius 114.186
lwrist 3.04584
lhand -25.1453 17.2788
lfingers 7.12502
lthumb 1.37122 47.2541
rfemur -9.56752 -3.58457 29.5806
rtibia 38.9295
rfoot -25.0038 -13.7907
rtoes -10.0375
lfemur -14.546 -2.16712 -8.22477
ltibia 44.5313
lfoot -20.6831 -14.5012
ltoes -14.4023
